<svg aria-roledescription="er" role="graphics-document document" viewBox="0 0 826.0421752929688 1064" style="max-width: 826.0421752929688px;" xmlns="http://www.w3.org/2000/svg" width="100%" id="mermaidSvgChart"><style>#mermaidSvgChart{font-family:"trebuchet ms",verdana,arial,sans-serif;font-size:16px;fill:#ccc;}#mermaidSvgChart .error-icon{fill:#a44141;}#mermaidSvgChart .error-text{fill:#ddd;stroke:#ddd;}#mermaidSvgChart .edge-thickness-normal{stroke-width:2px;}#mermaidSvgChart .edge-thickness-thick{stroke-width:3.5px;}#mermaidSvgChart .edge-pattern-solid{stroke-dasharray:0;}#mermaidSvgChart .edge-pattern-dashed{stroke-dasharray:3;}#mermaidSvgChart .edge-pattern-dotted{stroke-dasharray:2;}#mermaidSvgChart .marker{fill:lightgrey;stroke:lightgrey;}#mermaidSvgChart .marker.cross{stroke:lightgrey;}#mermaidSvgChart svg{font-family:"trebuchet ms",verdana,arial,sans-serif;font-size:16px;}#mermaidSvgChart .entityBox{fill:#1f2020;stroke:#81B1DB;}#mermaidSvgChart .attributeBoxOdd{fill:hsl(0, 0%, 32%);stroke:#81B1DB;}#mermaidSvgChart .attributeBoxEven{fill:hsl(0, 0%, 22%);stroke:#81B1DB;}#mermaidSvgChart .relationshipLabelBox{fill:hsl(20, 1.5873015873%, 12.3529411765%);opacity:0.7;background-color:hsl(20, 1.5873015873%, 12.3529411765%);}#mermaidSvgChart .relationshipLabelBox rect{opacity:0.5;}#mermaidSvgChart .relationshipLine{stroke:lightgrey;}#mermaidSvgChart .entityTitleText{text-anchor:middle;font-size:18px;fill:#ccc;}#mermaidSvgChart :root{--mermaid-font-family:"trebuchet ms",verdana,arial,sans-serif;}</style><g></g><defs><marker orient="auto" markerHeight="18" markerWidth="18" refY="9" refX="0" id="ONLY_ONE_START"><path d="M9,0 L9,18 M15,0 L15,18" fill="none" stroke="gray"></path></marker></defs><defs><marker orient="auto" markerHeight="18" markerWidth="18" refY="9" refX="18" id="ONLY_ONE_END"><path d="M3,0 L3,18 M9,0 L9,18" fill="none" stroke="gray"></path></marker></defs><defs><marker orient="auto" markerHeight="18" markerWidth="30" refY="9" refX="0" id="ZERO_OR_ONE_START"><circle r="6" cy="9" cx="21" fill="white" stroke="gray"></circle><path d="M9,0 L9,18" fill="none" stroke="gray"></path></marker></defs><defs><marker orient="auto" markerHeight="18" markerWidth="30" refY="9" refX="30" id="ZERO_OR_ONE_END"><circle r="6" cy="9" cx="9" fill="white" stroke="gray"></circle><path d="M21,0 L21,18" fill="none" stroke="gray"></path></marker></defs><defs><marker orient="auto" markerHeight="36" markerWidth="45" refY="18" refX="18" id="ONE_OR_MORE_START"><path d="M0,18 Q 18,0 36,18 Q 18,36 0,18 M42,9 L42,27" fill="none" stroke="gray"></path></marker></defs><defs><marker orient="auto" markerHeight="36" markerWidth="45" refY="18" refX="27" id="ONE_OR_MORE_END"><path d="M3,9 L3,27 M9,18 Q27,0 45,18 Q27,36 9,18" fill="none" stroke="gray"></path></marker></defs><defs><marker orient="auto" markerHeight="36" markerWidth="57" refY="18" refX="18" id="ZERO_OR_MORE_START"><circle r="6" cy="18" cx="48" fill="white" stroke="gray"></circle><path d="M0,18 Q18,0 36,18 Q18,36 0,18" fill="none" stroke="gray"></path></marker></defs><defs><marker orient="auto" markerHeight="36" markerWidth="57" refY="18" refX="39" id="ZERO_OR_MORE_END"><circle r="6" cy="18" cx="9" fill="white" stroke="gray"></circle><path d="M21,18 Q39,0 57,18 Q39,36 21,18" fill="none" stroke="gray"></path></marker></defs><path style="stroke: gray; fill: none;" marker-start="url(#ONLY_ONE_START)" marker-end="url(#ONE_OR_MORE_END)" d="M421.08,836L417.073,844.333C413.067,852.667,405.054,869.333,405.054,886C405.054,902.667,413.067,919.333,417.073,927.667L421.08,936" class="er relationshipLine"></path><path style="stroke: gray; fill: none;" marker-start="url(#ZERO_OR_ONE_START)" marker-end="url(#ONE_OR_MORE_END)" d="M473.003,836L477.009,844.333C481.016,852.667,489.028,869.333,489.028,886C489.028,902.667,481.016,919.333,477.009,927.667L473.003,936" class="er relationshipLine"></path><path style="stroke: gray; fill: none;" marker-start="url(#ZERO_OR_ONE_START)" marker-end="url(#ONE_OR_MORE_END)" d="M253.455,152.364L226.197,167.136C198.94,181.909,144.426,211.455,117.169,234.561C89.912,257.667,89.912,274.333,89.912,282.667L89.912,291" class="er relationshipLine"></path><path style="stroke: gray; fill: none;" marker-start="url(#ZERO_OR_ONE_START)" marker-end="url(#ONE_OR_MORE_END)" d="M426.39,154.164L452.106,168.636C477.822,183.109,529.253,212.055,554.969,234.861C580.685,257.667,580.685,274.333,580.685,282.667L580.685,291" class="er relationshipLine"></path><path style="stroke: gray; fill: none;" marker-start="url(#ZERO_OR_ONE_START)" marker-end="url(#ONE_OR_MORE_END)" d="M339.922,191L339.922,199.333C339.922,207.667,339.922,224.333,339.922,241C339.922,257.667,339.922,274.333,339.922,282.667L339.922,291" class="er relationshipLine"></path><path style="stroke: gray; fill: none;" marker-start="url(#ZERO_OR_ONE_START)" marker-end="url(#ONE_OR_MORE_END)" d="M655.824,618.684L665.575,628.57C675.325,638.456,694.827,658.228,704.577,679.947C714.328,701.667,714.328,725.333,714.328,737.167L714.328,749" class="er relationshipLine"></path><path style="stroke: gray; fill: none;" marker-start="url(#ZERO_OR_ONE_START)" marker-end="url(#ONE_OR_MORE_END)" d="M505.545,618.684L495.794,628.57C486.044,638.456,466.542,658.228,456.792,676.447C447.041,694.667,447.041,711.333,447.041,719.667L447.041,728" class="er relationshipLine"></path><path style="stroke: gray; fill: none;" marker-start="url(#ZERO_OR_ONE_START)" marker-end="url(#ONE_OR_MORE_END)" d="M580.685,357L580.685,365.333C580.685,373.667,580.685,390.333,580.685,407C580.685,423.667,580.685,440.333,580.685,448.667L580.685,457" class="er relationshipLine"></path><g transform="translate(20,291 )" id="entity-dbocargo-71a66b30-1a2e-5e1a-bd59-4261e176a85a"><rect height="66" width="139.8232421875" y="0" x="0" class="er entityBox"></rect><text style="dominant-baseline: middle; text-anchor: middle; font-size: 12px;" transform="translate(69.91162109375,12)" y="0" x="0" id="text-entity-dbocargo-71a66b30-1a2e-5e1a-bd59-4261e176a85a" class="er entityLabel">dbo.cargo</text><rect height="21" width="62.09375" y="24" x="0" class="er attributeBoxOdd"></rect><text style="dominant-baseline: middle; font-size: 10.2px;" transform="translate(5,34.5)" y="0" x="0" id="text-entity-dbocargo-71a66b30-1a2e-5e1a-bd59-4261e176a85a-attr-1-type" class="er entityLabel">int</text><rect height="21" width="53.93450927734375" y="24" x="62.09375" class="er attributeBoxOdd"></rect><text style="dominant-baseline: middle; font-size: 10.2px;" transform="translate(67.09375,34.5)" y="0" x="0" id="text-entity-dbocargo-71a66b30-1a2e-5e1a-bd59-4261e176a85a-attr-1-name" class="er entityLabel">ID_Cargo</text><rect height="21" width="23.79498291015625" y="24" x="116.02825927734375" class="er attributeBoxOdd"></rect><text style="dominant-baseline: middle; font-size: 10.2px;" transform="translate(121.02825927734375,34.5)" y="0" x="0" id="text-entity-dbocargo-71a66b30-1a2e-5e1a-bd59-4261e176a85a-attr-1-comment" class="er entityLabel">PK</text><rect height="21" width="62.09375" y="45" x="0" class="er attributeBoxEven"></rect><text style="dominant-baseline: middle; font-size: 10.2px;" transform="translate(5,55.5)" y="0" x="0" id="text-entity-dbocargo-71a66b30-1a2e-5e1a-bd59-4261e176a85a-attr-2-type" class="er entityLabel">varchar(30)</text><rect height="21" width="53.93450927734375" y="45" x="62.09375" class="er attributeBoxEven"></rect><text style="dominant-baseline: middle; font-size: 10.2px;" transform="translate(67.09375,55.5)" y="0" x="0" id="text-entity-dbocargo-71a66b30-1a2e-5e1a-bd59-4261e176a85a-attr-2-name" class="er entityLabel">Cargo</text><rect height="21" width="23.79498291015625" y="45" x="116.02825927734375" class="er attributeBoxEven"></rect><text style="dominant-baseline: middle; font-size: 10.2px;" transform="translate(121.02825927734375,55.5)" y="0" x="0" id="text-entity-dbocargo-71a66b30-1a2e-5e1a-bd59-4261e176a85a-attr-2-comment" class="er entityLabel"></text></g><g transform="translate(371.46874237060547,728 )" id="entity-dbocarrinho-f9c19eb3-b3de-56e9-aa32-29f693274b43"><rect height="108" width="151.1448974609375" y="0" x="0" class="er entityBox"></rect><text style="dominant-baseline: middle; text-anchor: middle; font-size: 12px;" transform="translate(75.57244873046875,12)" y="0" x="0" id="text-entity-dbocarrinho-f9c19eb3-b3de-56e9-aa32-29f693274b43" class="er entityLabel">dbo.carrinho</text><rect height="21" width="62.09375" y="24" x="0" class="er attributeBoxOdd"></rect><text style="dominant-baseline: middle; font-size: 10.2px;" transform="translate(5,34.5)" y="0" x="0" id="text-entity-dbocarrinho-f9c19eb3-b3de-56e9-aa32-29f693274b43-attr-1-type" class="er entityLabel">int</text><rect height="21" width="65.25616455078125" y="24" x="62.09375" class="er attributeBoxOdd"></rect><text style="dominant-baseline: middle; font-size: 10.2px;" transform="translate(67.09375,34.5)" y="0" x="0" id="text-entity-dbocarrinho-f9c19eb3-b3de-56e9-aa32-29f693274b43-attr-1-name" class="er entityLabel">ID_Carrinho</text><rect height="21" width="23.79498291015625" y="24" x="127.34991455078125" class="er attributeBoxOdd"></rect><text style="dominant-baseline: middle; font-size: 10.2px;" transform="translate(132.34991455078125,34.5)" y="0" x="0" id="text-entity-dbocarrinho-f9c19eb3-b3de-56e9-aa32-29f693274b43-attr-1-comment" class="er entityLabel">PK</text><rect height="21" width="62.09375" y="45" x="0" class="er attributeBoxEven"></rect><text style="dominant-baseline: middle; font-size: 10.2px;" transform="translate(5,55.5)" y="0" x="0" id="text-entity-dbocarrinho-f9c19eb3-b3de-56e9-aa32-29f693274b43-attr-2-type" class="er entityLabel">int</text><rect height="21" width="65.25616455078125" y="45" x="62.09375" class="er attributeBoxEven"></rect><text style="dominant-baseline: middle; font-size: 10.2px;" transform="translate(67.09375,55.5)" y="0" x="0" id="text-entity-dbocarrinho-f9c19eb3-b3de-56e9-aa32-29f693274b43-attr-2-name" class="er entityLabel">ID_Produto</text><rect height="21" width="23.79498291015625" y="45" x="127.34991455078125" class="er attributeBoxEven"></rect><text style="dominant-baseline: middle; font-size: 10.2px;" transform="translate(132.34991455078125,55.5)" y="0" x="0" id="text-entity-dbocarrinho-f9c19eb3-b3de-56e9-aa32-29f693274b43-attr-2-comment" class="er entityLabel">FK</text><rect height="21" width="62.09375" y="66" x="0" class="er attributeBoxOdd"></rect><text style="dominant-baseline: middle; font-size: 10.2px;" transform="translate(5,76.5)" y="0" x="0" id="text-entity-dbocarrinho-f9c19eb3-b3de-56e9-aa32-29f693274b43-attr-3-type" class="er entityLabel">varchar(35)</text><rect height="21" width="65.25616455078125" y="66" x="62.09375" class="er attributeBoxOdd"></rect><text style="dominant-baseline: middle; font-size: 10.2px;" transform="translate(67.09375,76.5)" y="0" x="0" id="text-entity-dbocarrinho-f9c19eb3-b3de-56e9-aa32-29f693274b43-attr-3-name" class="er entityLabel">CodBarras</text><rect height="21" width="23.79498291015625" y="66" x="127.34991455078125" class="er attributeBoxOdd"></rect><text style="dominant-baseline: middle; font-size: 10.2px;" transform="translate(132.34991455078125,76.5)" y="0" x="0" id="text-entity-dbocarrinho-f9c19eb3-b3de-56e9-aa32-29f693274b43-attr-3-comment" class="er entityLabel">FK</text><rect height="21" width="62.09375" y="87" x="0" class="er attributeBoxEven"></rect><text style="dominant-baseline: middle; font-size: 10.2px;" transform="translate(5,97.5)" y="0" x="0" id="text-entity-dbocarrinho-f9c19eb3-b3de-56e9-aa32-29f693274b43-attr-4-type" class="er entityLabel">decimal</text><rect height="21" width="65.25616455078125" y="87" x="62.09375" class="er attributeBoxEven"></rect><text style="dominant-baseline: middle; font-size: 10.2px;" transform="translate(67.09375,97.5)" y="0" x="0" id="text-entity-dbocarrinho-f9c19eb3-b3de-56e9-aa32-29f693274b43-attr-4-name" class="er entityLabel">SubTotal</text><rect height="21" width="23.79498291015625" y="87" x="127.34991455078125" class="er attributeBoxEven"></rect><text style="dominant-baseline: middle; font-size: 10.2px;" transform="translate(132.34991455078125,97.5)" y="0" x="0" id="text-entity-dbocarrinho-f9c19eb3-b3de-56e9-aa32-29f693274b43-attr-4-comment" class="er entityLabel"></text></g><g transform="translate(253.45455932617188,20 )" id="entity-dbologinsistema-34e9e17f-bbda-5937-aa4a-6ae24cf1cf30"><rect height="171" width="172.93560791015625" y="0" x="0" class="er entityBox"></rect><text style="dominant-baseline: middle; text-anchor: middle; font-size: 12px;" transform="translate(86.46780395507812,12)" y="0" x="0" id="text-entity-dbologinsistema-34e9e17f-bbda-5937-aa4a-6ae24cf1cf30" class="er entityLabel">dbo.login_sistema</text><rect height="21" width="67.765625" y="24" x="0" class="er attributeBoxOdd"></rect><text style="dominant-baseline: middle; font-size: 10.2px;" transform="translate(5,34.5)" y="0" x="0" id="text-entity-dbologinsistema-34e9e17f-bbda-5937-aa4a-6ae24cf1cf30-attr-1-type" class="er entityLabel">smallint</text><rect height="21" width="81.375" y="24" x="67.765625" class="er attributeBoxOdd"></rect><text style="dominant-baseline: middle; font-size: 10.2px;" transform="translate(72.765625,34.5)" y="0" x="0" id="text-entity-dbologinsistema-34e9e17f-bbda-5937-aa4a-6ae24cf1cf30-attr-1-name" class="er entityLabel">ID_Login</text><rect height="21" width="23.79498291015625" y="24" x="149.140625" class="er attributeBoxOdd"></rect><text style="dominant-baseline: middle; font-size: 10.2px;" transform="translate(154.140625,34.5)" y="0" x="0" id="text-entity-dbologinsistema-34e9e17f-bbda-5937-aa4a-6ae24cf1cf30-attr-1-comment" class="er entityLabel">PK</text><rect height="21" width="67.765625" y="45" x="0" class="er attributeBoxEven"></rect><text style="dominant-baseline: middle; font-size: 10.2px;" transform="translate(5,55.5)" y="0" x="0" id="text-entity-dbologinsistema-34e9e17f-bbda-5937-aa4a-6ae24cf1cf30-attr-2-type" class="er entityLabel">varchar(35)</text><rect height="21" width="81.375" y="45" x="67.765625" class="er attributeBoxEven"></rect><text style="dominant-baseline: middle; font-size: 10.2px;" transform="translate(72.765625,55.5)" y="0" x="0" id="text-entity-dbologinsistema-34e9e17f-bbda-5937-aa4a-6ae24cf1cf30-attr-2-name" class="er entityLabel">Nome</text><rect height="21" width="23.79498291015625" y="45" x="149.140625" class="er attributeBoxEven"></rect><text style="dominant-baseline: middle; font-size: 10.2px;" transform="translate(154.140625,55.5)" y="0" x="0" id="text-entity-dbologinsistema-34e9e17f-bbda-5937-aa4a-6ae24cf1cf30-attr-2-comment" class="er entityLabel"></text><rect height="21" width="67.765625" y="66" x="0" class="er attributeBoxOdd"></rect><text style="dominant-baseline: middle; font-size: 10.2px;" transform="translate(5,76.5)" y="0" x="0" id="text-entity-dbologinsistema-34e9e17f-bbda-5937-aa4a-6ae24cf1cf30-attr-3-type" class="er entityLabel">varchar(100)</text><rect height="21" width="81.375" y="66" x="67.765625" class="er attributeBoxOdd"></rect><text style="dominant-baseline: middle; font-size: 10.2px;" transform="translate(72.765625,76.5)" y="0" x="0" id="text-entity-dbologinsistema-34e9e17f-bbda-5937-aa4a-6ae24cf1cf30-attr-3-name" class="er entityLabel">Email</text><rect height="21" width="23.79498291015625" y="66" x="149.140625" class="er attributeBoxOdd"></rect><text style="dominant-baseline: middle; font-size: 10.2px;" transform="translate(154.140625,76.5)" y="0" x="0" id="text-entity-dbologinsistema-34e9e17f-bbda-5937-aa4a-6ae24cf1cf30-attr-3-comment" class="er entityLabel"></text><rect height="21" width="67.765625" y="87" x="0" class="er attributeBoxEven"></rect><text style="dominant-baseline: middle; font-size: 10.2px;" transform="translate(5,97.5)" y="0" x="0" id="text-entity-dbologinsistema-34e9e17f-bbda-5937-aa4a-6ae24cf1cf30-attr-4-type" class="er entityLabel">varchar(100)</text><rect height="21" width="81.375" y="87" x="67.765625" class="er attributeBoxEven"></rect><text style="dominant-baseline: middle; font-size: 10.2px;" transform="translate(72.765625,97.5)" y="0" x="0" id="text-entity-dbologinsistema-34e9e17f-bbda-5937-aa4a-6ae24cf1cf30-attr-4-name" class="er entityLabel">Senha</text><rect height="21" width="23.79498291015625" y="87" x="149.140625" class="er attributeBoxEven"></rect><text style="dominant-baseline: middle; font-size: 10.2px;" transform="translate(154.140625,97.5)" y="0" x="0" id="text-entity-dbologinsistema-34e9e17f-bbda-5937-aa4a-6ae24cf1cf30-attr-4-comment" class="er entityLabel"></text><rect height="21" width="67.765625" y="108" x="0" class="er attributeBoxOdd"></rect><text style="dominant-baseline: middle; font-size: 10.2px;" transform="translate(5,118.5)" y="0" x="0" id="text-entity-dbologinsistema-34e9e17f-bbda-5937-aa4a-6ae24cf1cf30-attr-5-type" class="er entityLabel">int</text><rect height="21" width="81.375" y="108" x="67.765625" class="er attributeBoxOdd"></rect><text style="dominant-baseline: middle; font-size: 10.2px;" transform="translate(72.765625,118.5)" y="0" x="0" id="text-entity-dbologinsistema-34e9e17f-bbda-5937-aa4a-6ae24cf1cf30-attr-5-name" class="er entityLabel">ID_Cargo</text><rect height="21" width="23.79498291015625" y="108" x="149.140625" class="er attributeBoxOdd"></rect><text style="dominant-baseline: middle; font-size: 10.2px;" transform="translate(154.140625,118.5)" y="0" x="0" id="text-entity-dbologinsistema-34e9e17f-bbda-5937-aa4a-6ae24cf1cf30-attr-5-comment" class="er entityLabel">FK</text><rect height="21" width="67.765625" y="129" x="0" class="er attributeBoxEven"></rect><text style="dominant-baseline: middle; font-size: 10.2px;" transform="translate(5,139.5)" y="0" x="0" id="text-entity-dbologinsistema-34e9e17f-bbda-5937-aa4a-6ae24cf1cf30-attr-6-type" class="er entityLabel">int</text><rect height="21" width="81.375" y="129" x="67.765625" class="er attributeBoxEven"></rect><text style="dominant-baseline: middle; font-size: 10.2px;" transform="translate(72.765625,139.5)" y="0" x="0" id="text-entity-dbologinsistema-34e9e17f-bbda-5937-aa4a-6ae24cf1cf30-attr-6-name" class="er entityLabel">ID_ListaVendas</text><rect height="21" width="23.79498291015625" y="129" x="149.140625" class="er attributeBoxEven"></rect><text style="dominant-baseline: middle; font-size: 10.2px;" transform="translate(154.140625,139.5)" y="0" x="0" id="text-entity-dbologinsistema-34e9e17f-bbda-5937-aa4a-6ae24cf1cf30-attr-6-comment" class="er entityLabel">FK</text><rect height="21" width="67.765625" y="150" x="0" class="er attributeBoxOdd"></rect><text style="dominant-baseline: middle; font-size: 10.2px;" transform="translate(5,160.5)" y="0" x="0" id="text-entity-dbologinsistema-34e9e17f-bbda-5937-aa4a-6ae24cf1cf30-attr-7-type" class="er entityLabel">int</text><rect height="21" width="81.375" y="150" x="67.765625" class="er attributeBoxOdd"></rect><text style="dominant-baseline: middle; font-size: 10.2px;" transform="translate(72.765625,160.5)" y="0" x="0" id="text-entity-dbologinsistema-34e9e17f-bbda-5937-aa4a-6ae24cf1cf30-attr-7-name" class="er entityLabel">ID_Permissao</text><rect height="21" width="23.79498291015625" y="150" x="149.140625" class="er attributeBoxOdd"></rect><text style="dominant-baseline: middle; font-size: 10.2px;" transform="translate(154.140625,160.5)" y="0" x="0" id="text-entity-dbologinsistema-34e9e17f-bbda-5937-aa4a-6ae24cf1cf30-attr-7-comment" class="er entityLabel">FK</text></g><g transform="translate(622.613639831543,749 )" id="entity-dbopagamento-72615d76-b832-5802-bd4c-1910a74c754e"><rect height="66" width="183.42852783203125" y="0" x="0" class="er entityBox"></rect><text style="dominant-baseline: middle; text-anchor: middle; font-size: 12px;" transform="translate(91.71426391601562,12)" y="0" x="0" id="text-entity-dbopagamento-72615d76-b832-5802-bd4c-1910a74c754e" class="er entityLabel">dbo.pagamento</text><rect height="21" width="62.09375" y="24" x="0" class="er attributeBoxOdd"></rect><text style="dominant-baseline: middle; font-size: 10.2px;" transform="translate(5,34.5)" y="0" x="0" id="text-entity-dbopagamento-72615d76-b832-5802-bd4c-1910a74c754e-attr-1-type" class="er entityLabel">smallint</text><rect height="21" width="97.539794921875" y="24" x="62.09375" class="er attributeBoxOdd"></rect><text style="dominant-baseline: middle; font-size: 10.2px;" transform="translate(67.09375,34.5)" y="0" x="0" id="text-entity-dbopagamento-72615d76-b832-5802-bd4c-1910a74c754e-attr-1-name" class="er entityLabel">ID_Pagamento</text><rect height="21" width="23.79498291015625" y="24" x="159.633544921875" class="er attributeBoxOdd"></rect><text style="dominant-baseline: middle; font-size: 10.2px;" transform="translate(164.633544921875,34.5)" y="0" x="0" id="text-entity-dbopagamento-72615d76-b832-5802-bd4c-1910a74c754e-attr-1-comment" class="er entityLabel">PK</text><rect height="21" width="62.09375" y="45" x="0" class="er attributeBoxEven"></rect><text style="dominant-baseline: middle; font-size: 10.2px;" transform="translate(5,55.5)" y="0" x="0" id="text-entity-dbopagamento-72615d76-b832-5802-bd4c-1910a74c754e-attr-2-type" class="er entityLabel">varchar(30)</text><rect height="21" width="97.539794921875" y="45" x="62.09375" class="er attributeBoxEven"></rect><text style="dominant-baseline: middle; font-size: 10.2px;" transform="translate(67.09375,55.5)" y="0" x="0" id="text-entity-dbopagamento-72615d76-b832-5802-bd4c-1910a74c754e-attr-2-name" class="er entityLabel">Forma_Pagamento</text><rect height="21" width="23.79498291015625" y="45" x="159.633544921875" class="er attributeBoxEven"></rect><text style="dominant-baseline: middle; font-size: 10.2px;" transform="translate(164.633544921875,55.5)" y="0" x="0" id="text-entity-dbopagamento-72615d76-b832-5802-bd4c-1910a74c754e-attr-2-comment" class="er entityLabel"></text></g><g transform="translate(371.9093246459961,936 )" id="entity-dboprodutos-1df9c66d-35dc-5f31-b4f7-fa0edd3fd65f"><rect height="108" width="150.26373291015625" y="0" x="0" class="er entityBox"></rect><text style="dominant-baseline: middle; text-anchor: middle; font-size: 12px;" transform="translate(75.13186645507812,12)" y="0" x="0" id="text-entity-dboprodutos-1df9c66d-35dc-5f31-b4f7-fa0edd3fd65f" class="er entityLabel">dbo.produtos</text><rect height="21" width="62.09375" y="24" x="0" class="er attributeBoxOdd"></rect><text style="dominant-baseline: middle; font-size: 10.2px;" transform="translate(5,34.5)" y="0" x="0" id="text-entity-dboprodutos-1df9c66d-35dc-5f31-b4f7-fa0edd3fd65f-attr-1-type" class="er entityLabel">int</text><rect height="21" width="64.375" y="24" x="62.09375" class="er attributeBoxOdd"></rect><text style="dominant-baseline: middle; font-size: 10.2px;" transform="translate(67.09375,34.5)" y="0" x="0" id="text-entity-dboprodutos-1df9c66d-35dc-5f31-b4f7-fa0edd3fd65f-attr-1-name" class="er entityLabel">ID_Produto</text><rect height="21" width="23.79498291015625" y="24" x="126.46875" class="er attributeBoxOdd"></rect><text style="dominant-baseline: middle; font-size: 10.2px;" transform="translate(131.46875,34.5)" y="0" x="0" id="text-entity-dboprodutos-1df9c66d-35dc-5f31-b4f7-fa0edd3fd65f-attr-1-comment" class="er entityLabel">PK</text><rect height="21" width="62.09375" y="45" x="0" class="er attributeBoxEven"></rect><text style="dominant-baseline: middle; font-size: 10.2px;" transform="translate(5,55.5)" y="0" x="0" id="text-entity-dboprodutos-1df9c66d-35dc-5f31-b4f7-fa0edd3fd65f-attr-2-type" class="er entityLabel">varchar(40)</text><rect height="21" width="64.375" y="45" x="62.09375" class="er attributeBoxEven"></rect><text style="dominant-baseline: middle; font-size: 10.2px;" transform="translate(67.09375,55.5)" y="0" x="0" id="text-entity-dboprodutos-1df9c66d-35dc-5f31-b4f7-fa0edd3fd65f-attr-2-name" class="er entityLabel">Nome</text><rect height="21" width="23.79498291015625" y="45" x="126.46875" class="er attributeBoxEven"></rect><text style="dominant-baseline: middle; font-size: 10.2px;" transform="translate(131.46875,55.5)" y="0" x="0" id="text-entity-dboprodutos-1df9c66d-35dc-5f31-b4f7-fa0edd3fd65f-attr-2-comment" class="er entityLabel"></text><rect height="21" width="62.09375" y="66" x="0" class="er attributeBoxOdd"></rect><text style="dominant-baseline: middle; font-size: 10.2px;" transform="translate(5,76.5)" y="0" x="0" id="text-entity-dboprodutos-1df9c66d-35dc-5f31-b4f7-fa0edd3fd65f-attr-3-type" class="er entityLabel">varchar(35)</text><rect height="21" width="64.375" y="66" x="62.09375" class="er attributeBoxOdd"></rect><text style="dominant-baseline: middle; font-size: 10.2px;" transform="translate(67.09375,76.5)" y="0" x="0" id="text-entity-dboprodutos-1df9c66d-35dc-5f31-b4f7-fa0edd3fd65f-attr-3-name" class="er entityLabel">Cod_Barras</text><rect height="21" width="23.79498291015625" y="66" x="126.46875" class="er attributeBoxOdd"></rect><text style="dominant-baseline: middle; font-size: 10.2px;" transform="translate(131.46875,76.5)" y="0" x="0" id="text-entity-dboprodutos-1df9c66d-35dc-5f31-b4f7-fa0edd3fd65f-attr-3-comment" class="er entityLabel"></text><rect height="21" width="62.09375" y="87" x="0" class="er attributeBoxEven"></rect><text style="dominant-baseline: middle; font-size: 10.2px;" transform="translate(5,97.5)" y="0" x="0" id="text-entity-dboprodutos-1df9c66d-35dc-5f31-b4f7-fa0edd3fd65f-attr-4-type" class="er entityLabel">decimal</text><rect height="21" width="64.375" y="87" x="62.09375" class="er attributeBoxEven"></rect><text style="dominant-baseline: middle; font-size: 10.2px;" transform="translate(67.09375,97.5)" y="0" x="0" id="text-entity-dboprodutos-1df9c66d-35dc-5f31-b4f7-fa0edd3fd65f-attr-4-name" class="er entityLabel">Preco</text><rect height="21" width="23.79498291015625" y="87" x="126.46875" class="er attributeBoxEven"></rect><text style="dominant-baseline: middle; font-size: 10.2px;" transform="translate(131.46875,97.5)" y="0" x="0" id="text-entity-dboprodutos-1df9c66d-35dc-5f31-b4f7-fa0edd3fd65f-attr-4-comment" class="er entityLabel"></text></g><g transform="translate(505.5448684692383,457 )" id="entity-dbovendas-e1bdba26-a1e9-564b-969f-3bda135cc053"><rect height="171" width="150.27935791015625" y="0" x="0" class="er entityBox"></rect><text style="dominant-baseline: middle; text-anchor: middle; font-size: 12px;" transform="translate(75.13967895507812,12)" y="0" x="0" id="text-entity-dbovendas-e1bdba26-a1e9-564b-969f-3bda135cc053" class="er entityLabel">dbo.vendas</text><rect height="21" width="45.109375" y="24" x="0" class="er attributeBoxOdd"></rect><text style="dominant-baseline: middle; font-size: 10.2px;" transform="translate(5,34.5)" y="0" x="0" id="text-entity-dbovendas-e1bdba26-a1e9-564b-969f-3bda135cc053-attr-1-type" class="er entityLabel">int</text><rect height="21" width="81.375" y="24" x="45.109375" class="er attributeBoxOdd"></rect><text style="dominant-baseline: middle; font-size: 10.2px;" transform="translate(50.109375,34.5)" y="0" x="0" id="text-entity-dbovendas-e1bdba26-a1e9-564b-969f-3bda135cc053-attr-1-name" class="er entityLabel">ID_Vendas</text><rect height="21" width="23.79498291015625" y="24" x="126.484375" class="er attributeBoxOdd"></rect><text style="dominant-baseline: middle; font-size: 10.2px;" transform="translate(131.484375,34.5)" y="0" x="0" id="text-entity-dbovendas-e1bdba26-a1e9-564b-969f-3bda135cc053-attr-1-comment" class="er entityLabel">PK</text><rect height="21" width="45.109375" y="45" x="0" class="er attributeBoxEven"></rect><text style="dominant-baseline: middle; font-size: 10.2px;" transform="translate(5,55.5)" y="0" x="0" id="text-entity-dbovendas-e1bdba26-a1e9-564b-969f-3bda135cc053-attr-2-type" class="er entityLabel">decimal</text><rect height="21" width="81.375" y="45" x="45.109375" class="er attributeBoxEven"></rect><text style="dominant-baseline: middle; font-size: 10.2px;" transform="translate(50.109375,55.5)" y="0" x="0" id="text-entity-dbovendas-e1bdba26-a1e9-564b-969f-3bda135cc053-attr-2-name" class="er entityLabel">Subtotal</text><rect height="21" width="23.79498291015625" y="45" x="126.484375" class="er attributeBoxEven"></rect><text style="dominant-baseline: middle; font-size: 10.2px;" transform="translate(131.484375,55.5)" y="0" x="0" id="text-entity-dbovendas-e1bdba26-a1e9-564b-969f-3bda135cc053-attr-2-comment" class="er entityLabel"></text><rect height="21" width="45.109375" y="66" x="0" class="er attributeBoxOdd"></rect><text style="dominant-baseline: middle; font-size: 10.2px;" transform="translate(5,76.5)" y="0" x="0" id="text-entity-dbovendas-e1bdba26-a1e9-564b-969f-3bda135cc053-attr-3-type" class="er entityLabel">smallint</text><rect height="21" width="81.375" y="66" x="45.109375" class="er attributeBoxOdd"></rect><text style="dominant-baseline: middle; font-size: 10.2px;" transform="translate(50.109375,76.5)" y="0" x="0" id="text-entity-dbovendas-e1bdba26-a1e9-564b-969f-3bda135cc053-attr-3-name" class="er entityLabel">ID_Pagamento</text><rect height="21" width="23.79498291015625" y="66" x="126.484375" class="er attributeBoxOdd"></rect><text style="dominant-baseline: middle; font-size: 10.2px;" transform="translate(131.484375,76.5)" y="0" x="0" id="text-entity-dbovendas-e1bdba26-a1e9-564b-969f-3bda135cc053-attr-3-comment" class="er entityLabel">FK</text><rect height="21" width="45.109375" y="87" x="0" class="er attributeBoxEven"></rect><text style="dominant-baseline: middle; font-size: 10.2px;" transform="translate(5,97.5)" y="0" x="0" id="text-entity-dbovendas-e1bdba26-a1e9-564b-969f-3bda135cc053-attr-4-type" class="er entityLabel">decimal</text><rect height="21" width="81.375" y="87" x="45.109375" class="er attributeBoxEven"></rect><text style="dominant-baseline: middle; font-size: 10.2px;" transform="translate(50.109375,97.5)" y="0" x="0" id="text-entity-dbovendas-e1bdba26-a1e9-564b-969f-3bda135cc053-attr-4-name" class="er entityLabel">Total</text><rect height="21" width="23.79498291015625" y="87" x="126.484375" class="er attributeBoxEven"></rect><text style="dominant-baseline: middle; font-size: 10.2px;" transform="translate(131.484375,97.5)" y="0" x="0" id="text-entity-dbovendas-e1bdba26-a1e9-564b-969f-3bda135cc053-attr-4-comment" class="er entityLabel"></text><rect height="21" width="45.109375" y="108" x="0" class="er attributeBoxOdd"></rect><text style="dominant-baseline: middle; font-size: 10.2px;" transform="translate(5,118.5)" y="0" x="0" id="text-entity-dbovendas-e1bdba26-a1e9-564b-969f-3bda135cc053-attr-5-type" class="er entityLabel">date</text><rect height="21" width="81.375" y="108" x="45.109375" class="er attributeBoxOdd"></rect><text style="dominant-baseline: middle; font-size: 10.2px;" transform="translate(50.109375,118.5)" y="0" x="0" id="text-entity-dbovendas-e1bdba26-a1e9-564b-969f-3bda135cc053-attr-5-name" class="er entityLabel">Data_Venda</text><rect height="21" width="23.79498291015625" y="108" x="126.484375" class="er attributeBoxOdd"></rect><text style="dominant-baseline: middle; font-size: 10.2px;" transform="translate(131.484375,118.5)" y="0" x="0" id="text-entity-dbovendas-e1bdba26-a1e9-564b-969f-3bda135cc053-attr-5-comment" class="er entityLabel"></text><rect height="21" width="45.109375" y="129" x="0" class="er attributeBoxEven"></rect><text style="dominant-baseline: middle; font-size: 10.2px;" transform="translate(5,139.5)" y="0" x="0" id="text-entity-dbovendas-e1bdba26-a1e9-564b-969f-3bda135cc053-attr-6-type" class="er entityLabel">int</text><rect height="21" width="81.375" y="129" x="45.109375" class="er attributeBoxEven"></rect><text style="dominant-baseline: middle; font-size: 10.2px;" transform="translate(50.109375,139.5)" y="0" x="0" id="text-entity-dbovendas-e1bdba26-a1e9-564b-969f-3bda135cc053-attr-6-name" class="er entityLabel">ID_Carrinho</text><rect height="21" width="23.79498291015625" y="129" x="126.484375" class="er attributeBoxEven"></rect><text style="dominant-baseline: middle; font-size: 10.2px;" transform="translate(131.484375,139.5)" y="0" x="0" id="text-entity-dbovendas-e1bdba26-a1e9-564b-969f-3bda135cc053-attr-6-comment" class="er entityLabel">FK</text><rect height="21" width="45.109375" y="150" x="0" class="er attributeBoxOdd"></rect><text style="dominant-baseline: middle; font-size: 10.2px;" transform="translate(5,160.5)" y="0" x="0" id="text-entity-dbovendas-e1bdba26-a1e9-564b-969f-3bda135cc053-attr-7-type" class="er entityLabel">int</text><rect height="21" width="81.375" y="150" x="45.109375" class="er attributeBoxOdd"></rect><text style="dominant-baseline: middle; font-size: 10.2px;" transform="translate(50.109375,160.5)" y="0" x="0" id="text-entity-dbovendas-e1bdba26-a1e9-564b-969f-3bda135cc053-attr-7-name" class="er entityLabel">ID_ListaVendas</text><rect height="21" width="23.79498291015625" y="150" x="126.484375" class="er attributeBoxOdd"></rect><text style="dominant-baseline: middle; font-size: 10.2px;" transform="translate(131.484375,160.5)" y="0" x="0" id="text-entity-dbovendas-e1bdba26-a1e9-564b-969f-3bda135cc053-attr-7-comment" class="er entityLabel"></text></g><g transform="translate(259.8232421875,291 )" id="entity-dbopermissao-8dbeb163-de99-5654-8bbb-2d94c505574d"><rect height="66" width="160.1982421875" y="0" x="0" class="er entityBox"></rect><text style="dominant-baseline: middle; text-anchor: middle; font-size: 12px;" transform="translate(80.09912109375,12)" y="0" x="0" id="text-entity-dbopermissao-8dbeb163-de99-5654-8bbb-2d94c505574d" class="er entityLabel">dbo.permissao</text><rect height="21" width="62.09375" y="24" x="0" class="er attributeBoxOdd"></rect><text style="dominant-baseline: middle; font-size: 10.2px;" transform="translate(5,34.5)" y="0" x="0" id="text-entity-dbopermissao-8dbeb163-de99-5654-8bbb-2d94c505574d-attr-1-type" class="er entityLabel">int</text><rect height="21" width="74.30950927734375" y="24" x="62.09375" class="er attributeBoxOdd"></rect><text style="dominant-baseline: middle; font-size: 10.2px;" transform="translate(67.09375,34.5)" y="0" x="0" id="text-entity-dbopermissao-8dbeb163-de99-5654-8bbb-2d94c505574d-attr-1-name" class="er entityLabel">ID_Permissao</text><rect height="21" width="23.79498291015625" y="24" x="136.40325927734375" class="er attributeBoxOdd"></rect><text style="dominant-baseline: middle; font-size: 10.2px;" transform="translate(141.40325927734375,34.5)" y="0" x="0" id="text-entity-dbopermissao-8dbeb163-de99-5654-8bbb-2d94c505574d-attr-1-comment" class="er entityLabel">PK</text><rect height="21" width="62.09375" y="45" x="0" class="er attributeBoxEven"></rect><text style="dominant-baseline: middle; font-size: 10.2px;" transform="translate(5,55.5)" y="0" x="0" id="text-entity-dbopermissao-8dbeb163-de99-5654-8bbb-2d94c505574d-attr-2-type" class="er entityLabel">varchar(30)</text><rect height="21" width="74.30950927734375" y="45" x="62.09375" class="er attributeBoxEven"></rect><text style="dominant-baseline: middle; font-size: 10.2px;" transform="translate(67.09375,55.5)" y="0" x="0" id="text-entity-dbopermissao-8dbeb163-de99-5654-8bbb-2d94c505574d-attr-2-name" class="er entityLabel">permissao</text><rect height="21" width="23.79498291015625" y="45" x="136.40325927734375" class="er attributeBoxEven"></rect><text style="dominant-baseline: middle; font-size: 10.2px;" transform="translate(141.40325927734375,55.5)" y="0" x="0" id="text-entity-dbopermissao-8dbeb163-de99-5654-8bbb-2d94c505574d-attr-2-comment" class="er entityLabel"></text></g><g transform="translate(520.021484375,291 )" id="entity-dbolistavendas-095c66b2-8c56-5b1c-9947-d9a3008f1ae5"><rect height="66" width="121.32612609863281" y="0" x="0" class="er entityBox"></rect><text style="dominant-baseline: middle; text-anchor: middle; font-size: 12px;" transform="translate(60.663063049316406,12)" y="0" x="0" id="text-entity-dbolistavendas-095c66b2-8c56-5b1c-9947-d9a3008f1ae5" class="er entityLabel">dbo.lista_vendas</text><rect height="21" width="20.92913818359375" y="24" x="0" class="er attributeBoxOdd"></rect><text style="dominant-baseline: middle; font-size: 10.2px;" transform="translate(5,34.5)" y="0" x="0" id="text-entity-dbolistavendas-095c66b2-8c56-5b1c-9947-d9a3008f1ae5-attr-1-type" class="er entityLabel">int</text><rect height="21" width="76.60200500488281" y="24" x="20.92913818359375" class="er attributeBoxOdd"></rect><text style="dominant-baseline: middle; font-size: 10.2px;" transform="translate(25.92913818359375,34.5)" y="0" x="0" id="text-entity-dbolistavendas-095c66b2-8c56-5b1c-9947-d9a3008f1ae5-attr-1-name" class="er entityLabel">ID_ListaVenda</text><rect height="21" width="23.79498291015625" y="24" x="97.53114318847656" class="er attributeBoxOdd"></rect><text style="dominant-baseline: middle; font-size: 10.2px;" transform="translate(102.53114318847656,34.5)" y="0" x="0" id="text-entity-dbolistavendas-095c66b2-8c56-5b1c-9947-d9a3008f1ae5-attr-1-comment" class="er entityLabel">PK</text><rect height="21" width="20.92913818359375" y="45" x="0" class="er attributeBoxEven"></rect><text style="dominant-baseline: middle; font-size: 10.2px;" transform="translate(5,55.5)" y="0" x="0" id="text-entity-dbolistavendas-095c66b2-8c56-5b1c-9947-d9a3008f1ae5-attr-2-type" class="er entityLabel">int</text><rect height="21" width="76.60200500488281" y="45" x="20.92913818359375" class="er attributeBoxEven"></rect><text style="dominant-baseline: middle; font-size: 10.2px;" transform="translate(25.92913818359375,55.5)" y="0" x="0" id="text-entity-dbolistavendas-095c66b2-8c56-5b1c-9947-d9a3008f1ae5-attr-2-name" class="er entityLabel">ID_Vendas</text><rect height="21" width="23.79498291015625" y="45" x="97.53114318847656" class="er attributeBoxEven"></rect><text style="dominant-baseline: middle; font-size: 10.2px;" transform="translate(102.53114318847656,55.5)" y="0" x="0" id="text-entity-dbolistavendas-095c66b2-8c56-5b1c-9947-d9a3008f1ae5-attr-2-comment" class="er entityLabel">FK</text></g><rect height="14" width="61.029296875" y="879" x="374.5393371582031" class="er relationshipLabelBox"></rect><text style="text-anchor: middle; dominant-baseline: middle; font-size: 12px;" y="886" x="405.0539855957031" id="rel1" class="er relationshipLabel">ID_Produto</text><rect height="14" width="64.03125" y="879" x="457.01239013671875" class="er relationshipLabelBox"></rect><text style="text-anchor: middle; dominant-baseline: middle; font-size: 12px;" y="886" x="489.02801513671875" id="rel2" class="er relationshipLabel">Cod_Barras</text><rect height="14" width="51.68359375" y="200.5963592529297" x="129.61045837402344" class="er relationshipLabelBox"></rect><text style="text-anchor: middle; dominant-baseline: middle; font-size: 12px;" y="207.5963592529297" x="155.45225524902344" id="rel3" class="er relationshipLabel">ID_Cargo</text><rect height="14" width="78.384765625" y="201.91986083984375" x="480.580078125" class="er relationshipLabelBox"></rect><text style="text-anchor: middle; dominant-baseline: middle; font-size: 12px;" y="208.91986083984375" x="519.7724609375" id="rel4" class="er relationshipLabel">ID_ListaVenda</text><rect height="14" width="75.68359375" y="234" x="302.0802001953125" class="er relationshipLabelBox"></rect><text style="text-anchor: middle; dominant-baseline: middle; font-size: 12px;" y="241" x="339.9219970703125" id="rel5" class="er relationshipLabel">ID_Permissao</text><rect height="14" width="80.376953125" y="669.1583862304688" x="662.58154296875" class="er relationshipLabelBox"></rect><text style="text-anchor: middle; dominant-baseline: middle; font-size: 12px;" y="676.1583862304688" x="702.77001953125" id="rel6" class="er relationshipLabel">ID_Pagamento</text><rect height="14" width="65.01953125" y="659.7758178710938" x="430.2096252441406" class="er relationshipLabelBox"></rect><text style="text-anchor: middle; dominant-baseline: middle; font-size: 12px;" y="666.7758178710938" x="462.7193908691406" id="rel7" class="er relationshipLabel">ID_Carrinho</text><rect height="14" width="58.71875" y="400" x="551.3256225585938" class="er relationshipLabelBox"></rect><text style="text-anchor: middle; dominant-baseline: middle; font-size: 12px;" y="407" x="580.6849975585938" id="rel8" class="er relationshipLabel">ID_Vendas</text></svg>